<svg width="654" height="649" viewBox="0 0 654 649" fill="none" xmlns="http://www.w3.org/2000/svg">
<path d="M3.96811 0L639.168 283.978L635.2 292.853L0 8.87585L3.96811 0Z" fill="url(#paint0_linear_2188_88)" fill-opacity="0.3"/>
<path d="M4.67438 16.9505L639.875 300.928L635.906 309.804L0.706272 25.8264L4.67438 16.9505Z" fill="url(#paint1_linear_2188_88)" fill-opacity="0.3"/>
<path d="M5.38065 33.9011L640.581 317.879L636.613 326.754L1.41254 42.7769L5.38065 33.9011Z" fill="url(#paint2_linear_2188_88)" fill-opacity="0.3"/>
<path d="M6.08692 50.8516L641.287 334.829L637.319 343.705L2.11882 59.7274L6.08692 50.8516Z" fill="url(#paint3_linear_2188_88)" fill-opacity="0.3"/>
<path d="M6.79319 67.8021L641.993 351.78L638.025 360.656L2.82509 76.678L6.79319 67.8021Z" fill="url(#paint4_linear_2188_88)" fill-opacity="0.3"/>
<path d="M7.49947 84.7526L642.7 368.73L638.732 377.606L3.53136 93.6285L7.49947 84.7526Z" fill="url(#paint5_linear_2188_88)" fill-opacity="0.3"/>
<path d="M8.20574 101.703L643.406 385.681L639.438 394.557L4.23763 110.579L8.20574 101.703Z" fill="url(#paint6_linear_2188_88)" fill-opacity="0.3"/>
<path d="M8.91201 118.654L644.112 402.631L640.144 411.507L4.9439 127.53L8.91201 118.654Z" fill="url(#paint7_linear_2188_88)" fill-opacity="0.3"/>
<path d="M9.61828 135.604L644.818 419.582L640.85 428.458L5.65018 144.48L9.61828 135.604Z" fill="url(#paint8_linear_2188_88)" fill-opacity="0.3"/>
<path d="M10.3246 152.555L645.525 436.532L641.557 445.408L6.35645 161.431L10.3246 152.555Z" fill="url(#paint9_linear_2188_88)" fill-opacity="0.3"/>
<path d="M11.0308 169.505L646.231 453.483L642.263 462.359L7.06272 178.381L11.0308 169.505Z" fill="url(#paint10_linear_2188_88)" fill-opacity="0.3"/>
<path d="M11.7371 186.456L646.937 470.433L642.969 479.309L7.76899 195.332L11.7371 186.456Z" fill="url(#paint11_linear_2188_88)" fill-opacity="0.3"/>
<path d="M12.4434 203.406L647.644 487.384L643.675 496.26L8.47526 212.282L12.4434 203.406Z" fill="url(#paint12_linear_2188_88)" fill-opacity="0.3"/>
<path d="M13.1496 220.357L648.35 504.334L644.382 513.21L9.18154 229.233L13.1496 220.357Z" fill="url(#paint13_linear_2188_88)" fill-opacity="0.3"/>
<path d="M13.8559 237.307L649.056 521.285L645.088 530.161L9.88781 246.183L13.8559 237.307Z" fill="url(#paint14_linear_2188_88)" fill-opacity="0.3"/>
<path d="M14.5622 254.258L649.762 538.236L645.794 547.111L10.5941 263.134L14.5622 254.258Z" fill="url(#paint15_linear_2188_88)" fill-opacity="0.3"/>
<path d="M15.2685 271.208L650.469 555.186L646.501 564.062L11.3004 280.084L15.2685 271.208Z" fill="url(#paint16_linear_2188_88)" fill-opacity="0.3"/>
<path d="M15.9747 288.159L651.175 572.137L647.207 581.012L12.0066 297.035L15.9747 288.159Z" fill="url(#paint17_linear_2188_88)" fill-opacity="0.3"/>
<path d="M16.681 305.11L651.881 589.087L647.913 597.963L12.7129 313.985L16.681 305.11Z" fill="url(#paint18_linear_2188_88)" fill-opacity="0.3"/>
<path d="M17.3873 322.06L652.587 606.038L648.619 614.913L13.4192 330.936L17.3873 322.06Z" fill="url(#paint19_linear_2188_88)" fill-opacity="0.3"/>
<path d="M18.0935 339.011L653.294 622.988L649.326 631.864L14.1254 347.886L18.0935 339.011Z" fill="url(#paint20_linear_2188_88)" fill-opacity="0.3"/>
<path d="M18.7998 355.961L654 639.939L650.032 648.815L14.8317 364.837L18.7998 355.961Z" fill="url(#paint21_linear_2188_88)" fill-opacity="0.3"/>
<defs>
<linearGradient id="paint0_linear_2188_88" x1="23.5" y1="94.5" x2="91" y2="315" gradientUnits="userSpaceOnUse">
<stop stop-color="white"/>
<stop offset="0.594169" stop-color="white" stop-opacity="0.12"/>
<stop offset="1" stop-color="white" stop-opacity="0"/>
</linearGradient>
<linearGradient id="paint1_linear_2188_88" x1="23.5" y1="94.5" x2="91" y2="315" gradientUnits="userSpaceOnUse">
<stop stop-color="white"/>
<stop offset="0.594169" stop-color="white" stop-opacity="0.12"/>
<stop offset="1" stop-color="white" stop-opacity="0"/>
</linearGradient>
<linearGradient id="paint2_linear_2188_88" x1="23.5" y1="94.5" x2="91" y2="315" gradientUnits="userSpaceOnUse">
<stop stop-color="white"/>
<stop offset="0.594169" stop-color="white" stop-opacity="0.12"/>
<stop offset="1" stop-color="white" stop-opacity="0"/>
</linearGradient>
<linearGradient id="paint3_linear_2188_88" x1="23.5" y1="94.5" x2="91" y2="315" gradientUnits="userSpaceOnUse">
<stop stop-color="white"/>
<stop offset="0.594169" stop-color="white" stop-opacity="0.12"/>
<stop offset="1" stop-color="white" stop-opacity="0"/>
</linearGradient>
<linearGradient id="paint4_linear_2188_88" x1="23.5" y1="94.5" x2="91" y2="315" gradientUnits="userSpaceOnUse">
<stop stop-color="white"/>
<stop offset="0.594169" stop-color="white" stop-opacity="0.12"/>
<stop offset="1" stop-color="white" stop-opacity="0"/>
</linearGradient>
<linearGradient id="paint5_linear_2188_88" x1="23.5" y1="94.5" x2="91" y2="315" gradientUnits="userSpaceOnUse">
<stop stop-color="white"/>
<stop offset="0.594169" stop-color="white" stop-opacity="0.12"/>
<stop offset="1" stop-color="white" stop-opacity="0"/>
</linearGradient>
<linearGradient id="paint6_linear_2188_88" x1="23.5" y1="94.5" x2="91" y2="315" gradientUnits="userSpaceOnUse">
<stop stop-color="white"/>
<stop offset="0.594169" stop-color="white" stop-opacity="0.12"/>
<stop offset="1" stop-color="white" stop-opacity="0"/>
</linearGradient>
<linearGradient id="paint7_linear_2188_88" x1="23.5" y1="94.5" x2="91" y2="315" gradientUnits="userSpaceOnUse">
<stop stop-color="white"/>
<stop offset="0.594169" stop-color="white" stop-opacity="0.12"/>
<stop offset="1" stop-color="white" stop-opacity="0"/>
</linearGradient>
<linearGradient id="paint8_linear_2188_88" x1="23.5" y1="94.5" x2="91" y2="315" gradientUnits="userSpaceOnUse">
<stop stop-color="white"/>
<stop offset="0.594169" stop-color="white" stop-opacity="0.12"/>
<stop offset="1" stop-color="white" stop-opacity="0"/>
</linearGradient>
<linearGradient id="paint9_linear_2188_88" x1="23.5" y1="94.5" x2="91" y2="315" gradientUnits="userSpaceOnUse">
<stop stop-color="white"/>
<stop offset="0.594169" stop-color="white" stop-opacity="0.12"/>
<stop offset="1" stop-color="white" stop-opacity="0"/>
</linearGradient>
<linearGradient id="paint10_linear_2188_88" x1="23.5" y1="94.5" x2="91" y2="315" gradientUnits="userSpaceOnUse">
<stop stop-color="white"/>
<stop offset="0.594169" stop-color="white" stop-opacity="0.12"/>
<stop offset="1" stop-color="white" stop-opacity="0"/>
</linearGradient>
<linearGradient id="paint11_linear_2188_88" x1="23.5" y1="94.5" x2="91" y2="315" gradientUnits="userSpaceOnUse">
<stop stop-color="white"/>
<stop offset="0.594169" stop-color="white" stop-opacity="0.12"/>
<stop offset="1" stop-color="white" stop-opacity="0"/>
</linearGradient>
<linearGradient id="paint12_linear_2188_88" x1="23.5" y1="94.5" x2="91" y2="315" gradientUnits="userSpaceOnUse">
<stop stop-color="white"/>
<stop offset="0.594169" stop-color="white" stop-opacity="0.12"/>
<stop offset="1" stop-color="white" stop-opacity="0"/>
</linearGradient>
<linearGradient id="paint13_linear_2188_88" x1="23.5" y1="94.5" x2="91" y2="315" gradientUnits="userSpaceOnUse">
<stop stop-color="white"/>
<stop offset="0.594169" stop-color="white" stop-opacity="0.12"/>
<stop offset="1" stop-color="white" stop-opacity="0"/>
</linearGradient>
<linearGradient id="paint14_linear_2188_88" x1="23.5" y1="94.5" x2="91" y2="315" gradientUnits="userSpaceOnUse">
<stop stop-color="white"/>
<stop offset="0.594169" stop-color="white" stop-opacity="0.12"/>
<stop offset="1" stop-color="white" stop-opacity="0"/>
</linearGradient>
<linearGradient id="paint15_linear_2188_88" x1="23.5" y1="94.5" x2="91" y2="315" gradientUnits="userSpaceOnUse">
<stop stop-color="white"/>
<stop offset="0.594169" stop-color="white" stop-opacity="0.12"/>
<stop offset="1" stop-color="white" stop-opacity="0"/>
</linearGradient>
<linearGradient id="paint16_linear_2188_88" x1="23.5" y1="94.5" x2="91" y2="315" gradientUnits="userSpaceOnUse">
<stop stop-color="white"/>
<stop offset="0.594169" stop-color="white" stop-opacity="0.12"/>
<stop offset="1" stop-color="white" stop-opacity="0"/>
</linearGradient>
<linearGradient id="paint17_linear_2188_88" x1="23.5" y1="94.5" x2="91" y2="315" gradientUnits="userSpaceOnUse">
<stop stop-color="white"/>
<stop offset="0.594169" stop-color="white" stop-opacity="0.12"/>
<stop offset="1" stop-color="white" stop-opacity="0"/>
</linearGradient>
<linearGradient id="paint18_linear_2188_88" x1="23.5" y1="94.5" x2="91" y2="315" gradientUnits="userSpaceOnUse">
<stop stop-color="white"/>
<stop offset="0.594169" stop-color="white" stop-opacity="0.12"/>
<stop offset="1" stop-color="white" stop-opacity="0"/>
</linearGradient>
<linearGradient id="paint19_linear_2188_88" x1="23.5" y1="94.5" x2="91" y2="315" gradientUnits="userSpaceOnUse">
<stop stop-color="white"/>
<stop offset="0.594169" stop-color="white" stop-opacity="0.12"/>
<stop offset="1" stop-color="white" stop-opacity="0"/>
</linearGradient>
<linearGradient id="paint20_linear_2188_88" x1="23.5" y1="94.5" x2="91" y2="315" gradientUnits="userSpaceOnUse">
<stop stop-color="white"/>
<stop offset="0.594169" stop-color="white" stop-opacity="0.12"/>
<stop offset="1" stop-color="white" stop-opacity="0"/>
</linearGradient>
<linearGradient id="paint21_linear_2188_88" x1="23.5" y1="94.5" x2="91" y2="315" gradientUnits="userSpaceOnUse">
<stop stop-color="white"/>
<stop offset="0.594169" stop-color="white" stop-opacity="0.12"/>
<stop offset="1" stop-color="white" stop-opacity="0"/>
</linearGradient>
</defs>
</svg>
