<svg width="51" height="18" viewBox="0 0 51 18" fill="none" xmlns="http://www.w3.org/2000/svg">
<path d="M23.1852 6.58867V11.4742H19.2473V6.58867H23.1852Z" fill="#FFD500"/>
<path d="M42.7042 6.58867V11.4742H38.7664V6.58867H42.7042Z" fill="#FFD500"/>
<path fill-rule="evenodd" clip-rule="evenodd" d="M47.6849 17.404H0L3.31507 0H51L47.6849 17.404ZM8.10144 4.35946C7.07362 4.35947 6.23267 5.20042 6.23266 6.22824V11.8346C6.23266 12.8625 7.07362 13.7034 8.10144 13.7034H13.2006C14.2284 13.7034 15.0694 12.8625 15.0694 11.8346V8.07038H10.651V9.95248H12.6133V11.5677H8.67542V6.48187H12.6133V7.30948H15.0694V6.22824C15.0693 5.20041 14.2284 4.35946 13.2006 4.35946H8.10144ZM18.6733 4.35946C17.6455 4.35947 16.8046 5.20042 16.8046 6.22824V11.8346C16.8046 12.8625 17.6455 13.7034 18.6733 13.7034H23.7725C24.8003 13.7034 25.6413 12.8625 25.6413 11.8346V6.22824C25.6413 5.20041 24.8003 4.35946 23.7725 4.35946H18.6733ZM27.5767 4.35946V13.7034H34.9851V11.5009H30.0729V4.35946H27.5767ZM36.3237 4.35946V13.7034H43.2916C44.3194 13.7034 45.1604 12.8625 45.1604 11.8346V6.22824C45.1603 5.20042 44.3194 4.35947 43.2916 4.35946H36.3237Z" fill="#FFD500"/>
</svg>
