<svg width="20" height="20" viewBox="0 0 20 20" fill="none" xmlns="http://www.w3.org/2000/svg">
<path d="M11.665 18.125C13.5442 18.125 15.0276 18.125 16.1262 17.9614C17.2419 17.7952 18.1469 17.4347 18.6466 16.5527L18.7329 16.3868C19.1257 15.5509 18.9649 14.6428 18.5636 13.6621C18.2439 12.8808 17.7308 11.9569 17.0825 10.8496L16.3907 9.68017L14.7867 6.97591L14.7485 6.91081C13.8296 5.3615 13.1024 4.13607 12.4259 3.30403C11.7357 2.45512 10.987 1.875 10 1.875C9.01292 1.87503 8.26426 2.45512 7.57402 3.30403C7.05962 3.93673 6.51557 4.79675 5.8805 5.85367L5.21318 6.97591L3.60918 9.68017L3.56931 9.74692C2.6121 11.3607 1.8568 12.6345 1.43633 13.6621C1.00833 14.7082 0.854199 15.6715 1.35332 16.5527L1.45179 16.7123C1.96703 17.4791 2.82782 17.8057 3.87367 17.9614C4.97237 18.125 6.45579 18.125 8.33492 18.125H11.665ZM10 8.33171C9.53975 8.33165 9.16667 7.95857 9.16667 7.49837V7.49023C9.16667 7.03003 9.53975 6.65696 10 6.6569C10.4602 6.6569 10.8333 7.03 10.8333 7.49023V7.49837C10.8333 7.95861 10.4602 8.33171 10 8.33171ZM10 15C9.53975 14.9999 9.16667 14.6268 9.16667 14.1667V10.4167C9.16667 9.9565 9.53975 9.58342 10 9.58333C10.4602 9.58333 10.8333 9.95642 10.8333 10.4167V14.1667C10.8333 14.6269 10.4602 15 10 15Z" fill="#4B5154"/>
</svg>
