<svg width="16" height="16" viewBox="0 0 16 16" fill="none" xmlns="http://www.w3.org/2000/svg">
<path fill-rule="evenodd" clip-rule="evenodd" d="M2.01865 4.14476C1.99988 4.03305 2.01333 4.01635 2.1254 4.00907C2.29119 3.99829 2.45772 3.99909 2.62399 3.9999C2.66783 4.00011 2.71165 4.00033 2.75543 4.00033C2.8669 4.00033 2.87238 4.00453 2.88911 4.11719C3.22547 6.38249 5.04613 8.16413 7.33275 8.45767V11.5691C6.29835 11.7866 5.44092 12.4995 4.96465 13.445C4.56617 14.2361 5.12428 15.1667 5.97193 15.1667H10.0269C10.8746 15.1667 11.4327 14.2361 11.0342 13.445C10.5579 12.4995 9.70049 11.7866 8.66609 11.5691V8.4578C10.9533 8.16473 12.7745 6.38289 13.1109 4.11719C13.1276 4.00453 13.1331 4.00033 13.2446 4.00033C13.2884 4.00033 13.3322 4.00011 13.376 3.9999C13.5423 3.99909 13.7088 3.99829 13.8746 4.00907C13.9934 4.01679 13.9951 4.06559 13.9764 4.17369C13.9597 4.26709 13.9365 4.37543 13.906 4.51715C13.7028 5.46036 13.265 6.27433 12.6884 6.87C12.4323 7.13453 12.4392 7.5566 12.7038 7.81267C12.9683 8.06873 13.3904 8.06187 13.6464 7.79733C14.4078 7.01087 14.9573 5.96811 15.2094 4.79791C15.2145 4.77417 15.2197 4.75041 15.2248 4.72663C15.2754 4.49436 15.3266 4.25963 15.3328 4.02159C15.3404 3.72714 15.2719 3.42929 15.0481 3.15719C14.8106 2.86843 14.5056 2.75365 14.2159 2.70652C13.9718 2.66681 13.6775 2.66689 13.3849 2.66699H13.2555C13.1415 2.66699 13.1361 2.66299 13.1208 2.54661C13.106 2.43407 13.085 2.32381 13.054 2.21747C12.9605 1.89673 12.7868 1.63445 12.5056 1.37732C11.9089 0.831674 11.218 0.832434 10.331 0.833414H5.66906C4.78199 0.832434 4.09115 0.831674 3.49441 1.37732C3.21321 1.63445 3.03951 1.89673 2.94606 2.21747C2.91508 2.32381 2.89409 2.43407 2.87926 2.54661C2.86393 2.66301 2.85854 2.66699 2.74451 2.66699H2.61514C2.3225 2.66689 2.02828 2.66681 1.78415 2.70652C1.49444 2.75365 1.18941 2.86843 0.9519 3.15719C0.728107 3.42929 0.659606 3.72714 0.667253 4.02159C0.673307 4.2546 0.729933 4.5168 0.781993 4.75787C1.02605 5.88891 1.54452 6.96153 2.3536 7.79733C2.60968 8.06187 3.03173 8.06873 3.29628 7.81267C3.56083 7.5566 3.56769 7.13453 3.31161 6.87C2.59184 6.12641 2.19326 5.15268 2.01865 4.14476Z" fill="#4B555E"/>
</svg>
