<svg width="16" height="16" viewBox="0 0 16 16" fill="none" xmlns="http://www.w3.org/2000/svg">
<path fill-rule="evenodd" clip-rule="evenodd" d="M5.4 0.833332C5.75899 0.833332 6.05 1.12503 6.05 1.48485V2.14189C6.43527 2.13635 6.85227 2.13635 7.30247 2.13636H8.69753C9.14773 2.13635 9.56473 2.13635 9.95 2.14189V1.48485C9.95 1.12503 10.241 0.833332 10.6 0.833332C10.959 0.833332 11.25 1.12503 11.25 1.48485V2.19965C11.3675 2.21037 11.4807 2.22291 11.5895 2.23759C12.3696 2.34271 13.0265 2.56761 13.5481 3.09049C14.0697 3.61336 14.2941 4.27172 14.399 5.05363C14.5 5.80676 14.5 6.76433 14.5 7.95233V9.35067C14.5 10.5387 14.5 11.4963 14.399 12.2494C14.2941 13.0313 14.0697 13.6897 13.5481 14.2125C13.0265 14.7354 12.3696 14.9603 11.5895 15.0655C10.8381 15.1667 9.8828 15.1667 8.69753 15.1667H7.30247C6.11721 15.1667 5.16186 15.1667 4.41049 15.0655C3.63039 14.9603 2.97357 14.7354 2.45191 14.2125C1.93025 13.6897 1.70587 13.0313 1.60099 12.2494C1.49997 11.4963 1.49999 10.5387 1.5 9.35073V7.95233C1.49999 6.76433 1.49997 5.80675 1.60099 5.05363C1.70587 4.27172 1.93025 3.61336 2.45191 3.09049C2.97357 2.56761 3.63039 2.34271 4.41049 2.23759C4.51935 2.22291 4.63249 2.21037 4.75 2.19965V1.48485C4.75 1.12503 5.04101 0.833332 5.4 0.833332ZM2.80924 6.5C2.8003 6.93053 2.80001 7.4252 2.80001 8V9.303C2.80001 10.5499 2.80139 11.4196 2.8894 12.0758C2.9749 12.7132 3.13129 13.0507 3.37115 13.2911C3.61101 13.5316 3.94777 13.6883 4.58371 13.7741C5.23835 13.8623 6.10598 13.8637 7.35 13.8637H8.65C9.89407 13.8637 10.7617 13.8623 11.4163 13.7741C12.0523 13.6883 12.389 13.5316 12.6289 13.2911C12.8687 13.0507 13.0251 12.7132 13.1106 12.0758C13.1986 11.4196 13.2 10.5499 13.2 9.303V8C13.2 7.4252 13.1997 6.93053 13.1908 6.5H2.80924Z" fill="#4B555E"/>
<path fill-rule="evenodd" clip-rule="evenodd" d="M4.66663 8.84893C4.66663 8.4808 4.96511 8.18227 5.33329 8.18227H5.33927C5.70747 8.18227 6.00594 8.4808 6.00594 8.84893C6.00594 9.21713 5.70747 9.5156 5.33927 9.5156H5.33329C4.96511 9.5156 4.66663 9.21713 4.66663 8.84893ZM7.33029 8.84893C7.33029 8.4808 7.62876 8.18227 7.99696 8.18227H8.00296C8.37116 8.18227 8.66963 8.4808 8.66963 8.84893C8.66963 9.21713 8.37116 9.5156 8.00296 9.5156H7.99696C7.62876 9.5156 7.33029 9.21713 7.33029 8.84893ZM9.99396 8.84893C9.99396 8.4808 10.2924 8.18227 10.6606 8.18227H10.6666C11.0348 8.18227 11.3333 8.4808 11.3333 8.84893C11.3333 9.21713 11.0348 9.5156 10.6666 9.5156H10.6606C10.2924 9.5156 9.99396 9.21713 9.99396 8.84893ZM4.66663 11.5156C4.66663 11.1475 4.96511 10.8489 5.33329 10.8489H5.33927C5.70747 10.8489 6.00594 11.1475 6.00594 11.5156C6.00594 11.8838 5.70747 12.1823 5.33927 12.1823H5.33329C4.96511 12.1823 4.66663 11.8838 4.66663 11.5156ZM7.33029 11.5156C7.33029 11.1475 7.62876 10.8489 7.99696 10.8489H8.00296C8.37116 10.8489 8.66963 11.1475 8.66963 11.5156C8.66963 11.8838 8.37116 12.1823 8.00296 12.1823H7.99696C7.62876 12.1823 7.33029 11.8838 7.33029 11.5156Z" fill="#4B555E"/>
</svg>
