<svg width="15" height="14" viewBox="0 0 15 14" fill="none" xmlns="http://www.w3.org/2000/svg">
<path fill-rule="evenodd" clip-rule="evenodd" d="M7.31235 0C6.7722 0 6.4407 0.3948 6.22522 0.73491C6.00405 1.0839 5.77588 1.58662 5.50507 2.18327C5.39991 2.41493 5.29787 2.64922 5.19567 2.88388C4.95785 3.42997 4.71914 3.97808 4.43816 4.49973C4.22378 4.89774 3.84512 5.12474 3.38351 4.96091C3.20945 4.89914 2.99042 4.80221 2.65961 4.65519C2.58003 4.61981 2.49695 4.58033 2.4112 4.53958C1.95636 4.32344 1.42662 4.07169 0.94698 4.20892C0.475395 4.34384 0.139763 4.73569 0.0295728 5.19399C-0.0373872 5.4725 0.0209929 5.75823 0.0894229 6.00415C0.160155 6.25838 0.275273 6.57697 0.414105 6.9612L1.68335 10.4739C1.94213 11.1901 2.15102 11.7683 2.36741 12.217C2.80991 13.1346 3.50764 13.6949 4.52978 13.8186C4.99551 13.875 5.56681 13.875 6.2613 13.875H8.3634C9.0579 13.875 9.62925 13.875 10.0949 13.8186C11.1171 13.6949 11.8148 13.1346 12.2573 12.217C12.4737 11.7683 12.6826 11.1902 12.9414 10.4738L14.2106 6.9612C14.3495 6.57702 14.4646 6.25837 14.5353 6.00415C14.6037 5.75823 14.6621 5.4725 14.5951 5.19399C14.485 4.73569 14.1493 4.34384 13.6777 4.20892C13.2029 4.07306 12.675 4.32252 12.2246 4.53536C12.1433 4.57376 12.0646 4.61098 11.9891 4.64452C11.943 4.665 11.897 4.68571 11.8509 4.70643C11.6501 4.79674 11.4485 4.88733 11.2412 4.96091C10.7796 5.12474 10.4009 4.89774 10.1866 4.49973C9.90555 3.97808 9.6669 3.42995 9.42908 2.88386C9.32685 2.64919 9.22478 2.4149 9.11963 2.18325C8.84888 1.58662 8.62065 1.08389 8.39955 0.73491C8.184 0.3948 7.8525 0 7.31235 0ZM7.31175 9C6.69322 9 6.19178 9.5037 6.19178 10.125C6.19178 10.7463 6.69322 11.25 7.31175 11.25H7.3218C7.9404 11.25 8.44178 10.7463 8.44178 10.125C8.44178 9.5037 7.9404 9 7.3218 9H7.31175Z" fill="black"/>
</svg>
