<svg width="13" height="14" viewBox="0 0 13 14" fill="none" xmlns="http://www.w3.org/2000/svg">
<path d="M6.50006 0C7.02486 0 7.48759 0.179833 7.97466 0.473307C8.44533 0.7569 8.98233 1.1745 9.65113 1.69466L9.67193 1.71094L11.0053 2.74805L11.5867 3.20377C12.1152 3.62843 12.4866 3.98014 12.7117 4.44011L12.7644 4.55664C13.0103 5.14297 13.0001 5.82147 13.0001 6.8262V8.5384C13.0001 9.60613 13.0001 10.4585 12.9102 11.1269C12.8231 11.7747 12.6444 12.3153 12.2514 12.7513L12.17 12.8366C11.7199 13.2867 11.1512 13.4839 10.4603 13.5768C9.79193 13.6667 8.93953 13.6667 7.87179 13.6667H5.12831C4.06059 13.6667 3.2082 13.6667 2.53977 13.5768C1.89199 13.4897 1.35136 13.311 0.915426 12.918L0.83014 12.8366C0.380073 12.3865 0.18278 11.8178 0.0898996 11.1269C0.0216929 10.6196 0.00532635 10.0064 0.00135969 9.27347L5.96701e-05 8.5V6.8262C5.96701e-05 5.75447 -0.0115336 5.05352 0.288473 4.44011C0.58854 3.82683 1.14896 3.40596 1.99485 2.74805L3.32819 1.71094L3.81256 1.33529C4.2739 0.98008 4.66875 0.688233 5.02545 0.473307C5.51253 0.179827 5.97526 1.33333e-05 6.50006 0ZM6.50006 7.5C5.76373 7.5 5.16673 8.097 5.16673 8.83333C5.16673 9.56967 5.76373 10.1667 6.50006 10.1667C7.23646 10.1667 7.83339 9.56973 7.83339 8.83333C7.83339 8.09693 7.23646 7.5 6.50006 7.5Z" fill="#E5E9EC"/>
</svg>
