<svg width="18" height="18" viewBox="0 0 18 18" fill="none" xmlns="http://www.w3.org/2000/svg">
<path fill-rule="evenodd" clip-rule="evenodd" d="M13.5004 0.9375C12.103 0.9375 10.7702 1.77272 10.2109 3.09674C9.68739 4.33588 9.97876 5.39839 10.5536 6.27811C11.0141 6.98278 11.6862 7.6116 12.2617 8.15003C12.3697 8.25105 12.4742 8.34885 12.5733 8.44335L12.5746 8.44455C12.8247 8.6817 13.1568 8.8125 13.5004 8.8125C13.844 8.8125 14.1761 8.6817 14.4263 8.44455C14.5203 8.3553 14.6192 8.2632 14.7211 8.16817C15.3023 7.62637 15.983 6.99181 16.4483 6.2783C17.0224 5.39778 17.3127 4.33437 16.7899 3.09674C16.2305 1.77272 14.8978 0.9375 13.5004 0.9375ZM13.4942 3.1875C12.7725 3.1875 12.1875 3.77513 12.1875 4.5C12.1875 5.22487 12.7725 5.8125 13.4942 5.8125H13.5059C14.2275 5.8125 14.8125 5.22487 14.8125 4.5C14.8125 3.77513 14.2275 3.1875 13.5059 3.1875H13.4942Z" fill="#E5E9EC"/>
<path d="M0.9375 14.25C0.9375 12.6967 2.1967 11.4375 3.75 11.4375C5.3033 11.4375 6.5625 12.6967 6.5625 14.25C6.5625 15.8033 5.3033 17.0625 3.75 17.0625C2.1967 17.0625 0.9375 15.8033 0.9375 14.25Z" fill="#E5E9EC"/>
<path fill-rule="evenodd" clip-rule="evenodd" d="M3.75 7.5C3.75 5.73884 5.37367 4.5 7.125 4.5H8.25C8.66423 4.5 9 4.83579 9 5.25C9 5.66421 8.66423 6 8.25 6H7.125C5.97683 6 5.25 6.77588 5.25 7.5C5.25 8.22412 5.97683 9 7.125 9H9.375C11.1263 9 12.75 10.2389 12.75 12C12.75 13.7612 11.1263 15 9.375 15H8.25C7.83577 15 7.5 14.6642 7.5 14.25C7.5 13.8358 7.83577 13.5 8.25 13.5H9.375C10.5232 13.5 11.25 12.7241 11.25 12C11.25 11.2759 10.5232 10.5 9.375 10.5H7.125C5.37367 10.5 3.75 9.26115 3.75 7.5Z" fill="#E5E9EC"/>
</svg>
