<svg width="20" height="20" viewBox="0 0 20 20" fill="none" xmlns="http://www.w3.org/2000/svg">
<path fill-rule="evenodd" clip-rule="evenodd" d="M10 1.04166C5.60376 1.04166 1.875 4.67461 1.875 9.10482C1.875 11.3735 2.83489 13.2701 4.18074 14.8354C5.5208 16.394 7.26528 17.6509 8.8985 18.662L8.90925 18.6687L8.92025 18.6748C9.24967 18.8607 9.62167 18.9583 10 18.9583C10.3783 18.9583 10.7503 18.8607 11.0798 18.6748L11.0893 18.6694L11.0987 18.6637C12.7379 17.6607 14.4827 16.3997 15.8222 14.8365C17.1669 13.2672 18.125 11.366 18.125 9.10482C18.125 4.67461 14.3962 1.04166 10 1.04166ZM10 5.83332C8.15905 5.83332 6.66667 7.32571 6.66667 9.16666C6.66667 11.0076 8.15905 12.5 10 12.5C11.8409 12.5 13.3333 11.0076 13.3333 9.16666C13.3333 7.32571 11.8409 5.83332 10 5.83332Z" fill="#8F9DA2"/>
</svg>
