<svg width="16" height="16" viewBox="0 0 16 16" fill="none" xmlns="http://www.w3.org/2000/svg">
<path d="M7.38045 8.31946C7.57065 8.23113 7.77038 8.16666 7.99998 8.16666C8.22958 8.16666 8.42931 8.23113 8.61951 8.31946C8.79478 8.40093 8.99285 8.51806 9.21605 8.65013L9.92105 9.0672C10.1532 9.20446 10.3584 9.32586 10.5204 9.4454C10.6966 9.57533 10.8521 9.724 10.9668 9.93033C11.0808 10.1353 11.1265 10.3467 11.1473 10.5665C11.1666 10.7709 11.1666 11.0161 11.1666 11.2977V12.0356C11.1666 12.3172 11.1666 12.5624 11.1473 12.7669C11.1265 12.9866 11.0808 13.198 10.9668 13.403C10.8521 13.6093 10.6966 13.758 10.5204 13.8879C10.3584 14.0075 10.1532 14.1289 9.92105 14.2661L9.21605 14.6832C8.99285 14.8153 8.79478 14.9324 8.61951 15.0139C8.42931 15.1022 8.22958 15.1667 7.99998 15.1667C7.77038 15.1667 7.57065 15.1022 7.38045 15.0139C7.20518 14.9324 7.00718 14.8153 6.78398 14.6832L6.07893 14.2661C5.84679 14.1289 5.64155 14.0075 5.47951 13.8879C5.3033 13.758 5.14787 13.6093 5.03313 13.403C4.91913 13.198 4.87342 12.9866 4.85263 12.7669C4.83329 12.5624 4.8333 12.3172 4.83331 12.0356V11.2977C4.8333 11.0161 4.83329 10.7709 4.85263 10.5665C4.87342 10.3467 4.91913 10.1353 5.03313 9.93033C5.14787 9.724 5.3033 9.57533 5.47951 9.4454C5.64155 9.32586 5.84678 9.20446 6.07892 9.0672L6.09822 9.0558L6.76491 8.6614L6.78391 8.65013C7.00718 8.51806 7.20518 8.40093 7.38045 8.31946Z" fill="#4B555E"/>
<path d="M12.4341 0.860649C12.7948 0.909582 13.2192 1.04974 13.515 1.45579C13.6898 1.69571 13.756 1.96561 13.7859 2.24397C13.8504 2.84433 13.8448 3.4898 13.7954 4.09173C13.7448 4.7071 13.4481 5.2028 12.9334 5.54793C12.687 5.7131 12.3982 5.84816 12.2032 5.9499L9.99295 7.10274C9.57242 7.32207 9.22742 7.50207 8.92882 7.6248C8.61635 7.7532 8.32255 7.83327 8.00002 7.83327C7.67749 7.83327 7.38369 7.7532 7.07122 7.6248C6.77262 7.50207 6.42764 7.32207 6.00709 7.10274L3.79685 5.9499C3.60181 5.84816 3.31304 5.71312 3.06667 5.54793C2.55193 5.2028 2.2553 4.7071 2.2047 4.09173C2.15521 3.4898 2.14971 2.84433 2.21415 2.24397C2.24402 1.96561 2.31029 1.69571 2.48507 1.45579C2.78091 1.04974 3.20527 0.909582 3.56598 0.860649C3.90141 0.815149 4.29018 0.840235 4.50567 0.840235H6.80395C7.05455 0.840235 7.17982 0.840235 7.25769 0.918342C7.33555 0.996442 7.33555 1.12216 7.33555 1.37357V3.33334C7.33555 3.70152 7.63302 4 8.00002 4C8.36702 4 8.66449 3.70152 8.66449 3.33334V1.37357C8.66449 1.12216 8.66448 0.996442 8.74235 0.918342C8.82022 0.840235 8.94549 0.840235 9.19608 0.840235H11.4944C11.7099 0.840235 12.0986 0.815149 12.4341 0.860649Z" fill="#4B555E"/>
</svg>
