<svg width="16" height="16" viewBox="0 0 16 16" fill="none" xmlns="http://www.w3.org/2000/svg">
<path fill-rule="evenodd" clip-rule="evenodd" d="M8 0.833332C7.73853 0.833332 7.48007 0.913472 7.23727 1.00529C6.99047 1.09857 6.6842 1.23486 6.31024 1.40125C5.76097 1.64565 5.02486 1.92994 4.24805 2.15127C3.68077 2.31289 3.21114 2.44669 2.85294 2.58592C2.49245 2.72603 2.13734 2.90968 1.89401 3.23257C1.65973 3.54347 1.57464 3.90098 1.53645 4.26231C1.49997 4.60754 1.49998 5.03727 1.5 5.5422V7.46793C1.5 9.51173 2.4213 11.1281 3.52345 12.3249C4.62113 13.5167 5.97411 14.3505 6.83093 14.8038C7.18733 14.9929 7.51507 15.1667 8 15.1667C8.48493 15.1667 8.81267 14.9929 9.16907 14.8038C10.0259 14.3505 11.3789 13.5167 12.4765 12.3249C13.5787 11.1281 14.5 9.51173 14.5 7.46793V5.54222C14.5 5.03728 14.5001 4.60755 14.4635 4.26231C14.4253 3.90098 14.3403 3.54347 14.106 3.23257C13.8627 2.90968 13.5075 2.72603 13.1471 2.58592C12.7889 2.44669 12.3192 2.31289 11.7519 2.15127C10.9751 1.92994 10.239 1.64564 9.68973 1.40125C9.3158 1.23486 9.00953 1.09857 8.76273 1.00529C8.51993 0.913472 8.26147 0.833332 8 0.833332ZM6.8192 2.60045C7.21613 2.42385 7.48827 2.30303 7.696 2.22449C7.91173 2.14294 7.98587 2.13639 8 2.13639C8.01407 2.13639 8.0882 2.14294 8.30393 2.22449C8.51167 2.30303 8.7838 2.42385 9.18073 2.60045C9.7746 2.86469 10.5189 3.15465 11.3652 3.39577L11.6059 3.46447L4.09633 10.9939C3.33726 10.034 2.79997 8.8644 2.79997 7.46793V5.57658C2.79997 5.0279 2.80083 4.66793 2.82919 4.39959C2.85667 4.13953 2.90292 4.05565 2.93131 4.01798C2.95065 3.99232 3.02382 3.91708 3.32291 3.80083C3.61772 3.68625 4.02827 3.56857 4.63476 3.39577C5.48102 3.15465 6.22535 2.86469 6.8192 2.60045Z" fill="#4B555E"/>
</svg>
