<svg width="31" height="17" viewBox="0 0 31 17" fill="none" xmlns="http://www.w3.org/2000/svg">
<path d="M27.6367 17H0L3.23828 0H30.875L27.6367 17ZM5.24023 3.66211V5.31543C5.24023 6.23184 5.2408 6.80102 6.19824 7.48145L7.82227 8.52344L6.14258 9.59277C5.22632 10.2595 5.24023 10.802 5.24023 11.7188V13.3857H7.83691V11.7041C7.83701 10.9961 8.04522 10.8707 8.80859 10.3291L9.83594 9.78809L10.8633 10.3291C11.6405 10.8707 11.8349 10.9961 11.835 11.7041V13.3857H14.4307V11.7188C14.4307 10.802 14.4446 10.2595 13.5283 9.59277L11.835 8.52344L13.4727 7.48145C14.4304 6.80093 14.4307 6.23193 14.4307 5.31543V3.66211H11.835V5.34277C11.835 6.05118 11.5987 6.20437 10.8213 6.74609L9.83594 7.25977L8.84961 6.74609C8.04448 6.19053 7.83692 6.05116 7.83691 5.34277V3.66211H5.24023ZM16.4434 3.66211V13.3857H18.9844V10.3984H23.6904C24.7594 10.3984 25.6338 9.52367 25.6338 8.4541V5.60645C25.6337 4.53699 24.7593 3.66211 23.6904 3.66211H16.4434ZM23.0801 5.92578V8.14844H18.9844V5.92578H23.0801Z" fill="#8800FF"/>
</svg>
